<svg width="248" height="28" viewBox="0 0 248 28" fill="none" xmlns="http://www.w3.org/2000/svg">
<g clip-path="url(#clip0_402_2683)">
<path fill-rule="evenodd" clip-rule="evenodd" d="M146.424 12.6628L136.077 1.25109H133.584V27.6404H140.493V15.9095L146.089 21.78H146.841L152.473 15.9095V27.6404H159.381V1.25109H156.965L146.424 12.6628ZM81.7459 18.3205C88.4254 13.8075 86.538 1.36252 76.15 1.32706H64.5614V27.6657H67.7867L71.3223 19.9262H74.8324L79.36 27.6404H86.9094V26.6628L81.7459 18.3205ZM76.15 13.919H71.3172V7.3343C72.9044 7.3343 74.5628 7.29884 76.15 7.3343C80.001 7.37482 79.8077 13.919 76.15 13.919ZM47.9823 27.6404H54.5956V26.6628L42.656 0.982635H39.7512L27.8523 26.6628V27.6404H34.4656L35.9918 24.3379H46.4307L47.9823 27.6404ZM44.2585 18.5789H38.1996L41.2062 11.6498L44.2585 18.5789ZM3.22527 27.6404L6.7863 20.9139H11.6547C24.3065 20.9139 24.3065 1.36252 11.6547 1.32706H0V27.6657L3.22527 27.6404ZM11.5937 14.8611H6.76086V7.33936C8.28702 7.33936 10.0065 7.30391 11.5937 7.33936C15.521 7.37988 15.2971 14.8611 11.5937 14.8611ZM117.005 27.6404H123.618V26.6628L111.679 0.982635H108.774L96.8752 26.6628V27.6404H103.488L105.04 24.3379H115.479L117.005 27.6404ZM113.271 18.5789H107.228L110.209 11.6498L113.271 18.5789Z" fill="#3A0B85"/>
<path d="M189.151 5.76918H180.823V27.5492H175.472V5.76918H167.149V0.785095H189.151V5.76918Z" fill="#00BBB4"/>
<path d="M206.54 18.2344C206.542 18.7964 206.51 19.3581 206.443 19.9161H193.267C193.801 22.5904 195.684 23.7554 198.044 23.7554C199.768 23.7188 201.427 23.0908 202.739 21.9776L205.675 25.1888C203.569 27.1187 200.883 27.9949 197.754 27.9949C192.056 27.9949 188.088 24.1404 188.088 18.3104C188.088 12.4805 191.924 8.51447 197.489 8.51447C202.846 8.51953 206.509 12.4703 206.54 18.2344ZM193.282 16.5174H201.503C201.045 14.1469 199.606 12.8097 197.434 12.8097C195.099 12.8148 193.715 14.2279 193.272 16.5224L193.282 16.5174Z" fill="#00BBB4"/>
<path d="M226.802 12.0145L223.2 15.013C222.715 14.4338 222.107 13.9683 221.421 13.6496C220.734 13.3309 219.985 13.1669 219.227 13.1693C216.638 13.1693 214.567 15.1954 214.567 18.2699C214.567 21.3444 216.602 23.3705 219.207 23.3705C219.98 23.3648 220.743 23.1946 221.445 22.8714C222.147 22.5482 222.772 22.0794 223.277 21.4964L226.838 24.5354C225.953 25.6548 224.817 26.5522 223.521 27.1556C222.225 27.759 220.805 28.0517 219.375 28.0101C213.448 28.0101 209.48 23.8871 209.48 18.2699C209.48 12.6527 213.448 8.52966 219.375 8.52966C220.801 8.48843 222.216 8.78248 223.507 9.38796C224.797 9.99343 225.926 10.8933 226.802 12.0145Z" fill="#00BBB4"/>
<path d="M235.435 11.0014C236.758 9.16787 238.737 8.51954 240.767 8.51954C244.989 8.51954 248 11.4421 248 15.7373V27.5239H242.995V17.343C242.995 14.6686 241.652 13.1997 239.368 13.1997C237.221 13.1997 235.435 14.5926 235.435 17.3835V27.5137H230.45V0H235.455L235.435 11.0014Z" fill="#00BBB4"/>
</g>
<defs>
<clipPath id="clip0_402_2683">
<rect width="248" height="28" fill="white"/>
</clipPath>
</defs>
</svg>
